<mxfile host="app.diagrams.net" modified="2023-10-06T03:04:10.519Z" agent="Mozilla/5.0 (Windows NT 10.0; Win64; x64) AppleWebKit/537.36 (KHTML, like Gecko) Chrome/117.0.0.0 Safari/537.36" version="22.0.3" etag="FZmS4FVkCKO6QemK8zf0" type="github">
  <diagram name="PÃ¡gina-1" id="CKKgjVtm6_ryN1-GlqVv">
    <mxGraphModel>
      <root>
        <mxCell id="0" />
        <mxCell id="1" parent="0" />
      </root>
    </mxGraphModel>
  </diagram>
</mxfile>
